<?xml version="1.0" standalone="no"?>
<!DOCTYPE svg PUBLIC "-//W3C//DTD SVG 20010904//EN"
 "http://www.w3.org/TR/2001/REC-SVG-20010904/DTD/svg10.dtd">
<svg version="1.0" xmlns="http://www.w3.org/2000/svg"
 width="1384.000000pt" height="892.000000pt" viewBox="0 0 1384.000000 892.000000"
 preserveAspectRatio="xMidYMid meet">

<g transform="translate(0.000000,892.000000) scale(0.100000,-0.100000)"
fill="#000000" stroke="none">
<path d="M0 4460 l0 -4460 6920 0 6920 0 0 4460 0 4460 -6920 0 -6920 0 0
-4460z m7053 4281 c105 -19 3637 -988 3651 -1001 5 -5 14 -6 20 -4 8 3 11 -45
11 -170 0 -96 -2 -173 -5 -171 -3 2 -6 -5 -6 -15 0 -10 4 -16 8 -14 10 6 10 1
2 -20 -3 -9 -10 -16 -16 -16 -5 0 -6 4 -3 10 3 5 0 7 -8 5 -14 -6 -903 232
-2617 701 -824 225 -1103 297 -1160 301 -74 5 -96 -1 -1305 -330 -676 -185
-1457 -397 -1735 -472 -278 -75 -577 -156 -665 -180 -218 -60 -462 -125 -467
-125 -2 0 -4 9 -5 20 -1 13 2 18 9 14 7 -4 8 -2 4 5 -4 6 -2 20 6 29 12 15 11
16 -4 3 -17 -13 -18 -4 -18 160 l0 174 703 194 c1721 474 3297 902 3352 909
71 10 175 7 248 -7z m5032 -1371 c449 -120 520 -147 639 -242 123 -99 214
-233 267 -393 20 -64 23 -93 27 -317 l4 -248 -24 0 c-23 0 -342 57 -365 65 -8
2 -12 60 -15 187 l-3 183 -33 67 c-40 83 -109 152 -182 187 -30 14 -209 69
-397 121 l-343 95 0 173 c0 104 -4 171 -9 167 -5 -3 -12 -1 -15 4 -3 5 1 11 9
15 12 4 13 11 5 31 -9 23 -8 26 8 21 10 -4 202 -55 427 -116z m-9930 100 c-4
-6 -6 -97 -5 -203 l1 -194 -333 -92 c-183 -51 -360 -105 -393 -120 -77 -36
-146 -104 -187 -189 l-33 -67 -5 -354 -5 -354 -85 -23 c-71 -19 -225 -71 -293
-99 -17 -7 -18 12 -15 441 4 439 4 451 27 519 74 221 221 393 416 486 50 25
169 63 320 104 642 173 601 163 590 145z m7290 -569 c874 -106 1866 -363 2517
-652 331 -147 572 -211 1047 -279 169 -24 506 -60 562 -60 8 0 -2 -11 -21 -24
-19 -13 -46 -42 -60 -65 -49 -81 -38 -76 -119 -56 -40 9 -73 16 -75 14 -2 -2
-36 -106 -76 -231 l-73 -226 -186 -4 c-206 -4 -223 -8 -279 -72 -17 -20 -37
-55 -43 -78 -7 -24 -14 -45 -15 -47 -2 -2 -62 45 -134 104 -210 172 -352 251
-555 310 -157 45 -262 58 -440 52 -175 -6 -268 -24 -420 -77 -189 -68 -286
-127 -620 -381 -6 -5 -10 17 -10 60 0 59 -4 72 -29 105 -16 21 -45 45 -64 53
-34 14 -317 43 -574 59 l-118 7 6 146 c7 163 -10 308 -45 402 -11 29 -20 53
-18 54 1 1 38 12 82 25 241 69 749 287 762 327 8 22 -83 94 -172 137 -111 55
-248 99 -425 136 -253 54 -644 100 -847 100 -98 0 -103 -1 -108 -22 -82 -339
-193 -824 -189 -829 4 -8 123 -3 299 12 126 11 340 47 462 78 l73 19 14 -48
c66 -221 57 -573 -16 -673 -11 -15 -13 -12 -13 23 -1 45 -27 86 -71 112 -31
18 -274 34 -889 59 -702 28 -2558 21 -3352 -12 -144 -6 -267 -9 -273 -7 -16 5
175 195 266 264 43 32 116 78 161 101 l84 43 165 0 166 0 42 -35 c119 -97 388
-185 568 -185 l40 0 -55 60 c-64 68 -117 171 -117 224 0 45 14 46 35 1 9 -19
23 -39 30 -45 10 -9 308 -9 1127 -3 l1113 8 117 420 c65 231 118 424 118 429
0 15 -399 -1 -995 -39 -610 -38 -685 -46 -863 -81 -295 -60 -472 -127 -896
-342 -188 -95 -446 -225 -573 -290 -128 -64 -233 -120 -233 -124 0 -5 26 -8
58 -8 l57 0 -62 -29 c-79 -37 -165 -96 -252 -171 -69 -59 -206 -213 -254 -285
l-27 -40 0 37 c0 44 -31 78 -70 78 -224 0 -1929 -95 -1992 -111 -40 -10 -92
-49 -109 -81 -6 -11 -14 -40 -18 -65 l-6 -44 -105 89 c-129 109 -199 156 -315
214 -184 93 -353 136 -561 145 -285 12 -536 -49 -773 -188 -84 -50 -229 -158
-265 -198 -18 -20 -29 -21 -164 -21 l-145 0 24 26 c39 42 180 150 274 209 189
118 450 226 685 284 516 125 1454 191 2724 191 l519 0 336 154 c185 85 505
232 711 326 434 200 516 235 675 290 342 118 619 165 1245 214 565 45 822 54
1360 51 415 -2 498 -5 655 -24z m-715 -216 c0 -2 -5 -15 -11 -28 l-11 -23
-339 -1 c-187 0 -337 2 -334 6 3 3 158 15 343 27 185 12 340 22 345 23 4 0 7
-1 7 -4z m410 -21 c85 -9 158 -19 162 -23 4 -3 -78 -7 -183 -7 -161 -1 -189 1
-185 13 4 8 6 21 6 29 0 10 7 13 23 10 12 -3 92 -13 177 -22z m-1142 -31 c-16
-2 -40 -2 -55 0 -16 2 -3 4 27 4 30 0 43 -2 28 -4z m-1648 -493 c30 -6 62 -17
71 -26 18 -16 65 -141 57 -149 -2 -3 -92 11 -199 30 -107 19 -224 38 -261 41
-71 7 -73 6 -69 -38 3 -23 -25 -13 -39 13 -28 52 1 115 60 129 51 12 318 12
380 0z m2932 -1837 c26 -23 24 -78 -4 -97 -52 -37 -118 -9 -118 50 0 56 78 87
122 47z m2728 8 c0 -5 -22 -115 -49 -243 -27 -128 -52 -259 -56 -290 l-7 -58
-64 0 c-63 0 -64 1 -64 27 l0 26 -22 -20 c-35 -32 -63 -43 -106 -43 -133 0
-164 216 -50 346 46 52 119 84 193 84 l61 0 18 90 18 90 64 0 c35 0 64 -4 64
-9z m-3769 -29 c25 -10 26 -11 16 -67 -9 -45 -14 -54 -26 -49 -9 4 -41 14 -71
22 -65 17 -104 7 -122 -32 -15 -34 6 -64 77 -111 79 -53 100 -86 100 -161 0
-51 -4 -66 -28 -97 -38 -50 -79 -69 -160 -75 -68 -5 -197 20 -197 39 0 22 22
109 28 109 4 0 15 -7 26 -15 10 -8 43 -20 72 -26 85 -19 136 13 120 76 -4 14
-30 38 -71 63 -95 60 -130 131 -106 213 14 48 66 101 112 117 39 13 191 9 230
-6z m-6454 -14 c-3 -13 -29 -133 -57 -268 -28 -135 -53 -253 -56 -262 -4 -15
-17 -18 -70 -18 -35 0 -64 4 -64 8 0 11 109 534 115 550 3 8 27 12 71 12 64 0
66 -1 61 -22z m3708 0 c6 -31 75 -517 75 -535 0 -11 -15 -13 -67 -11 -64 3
-68 4 -71 28 -1 14 -5 40 -8 58 l-5 32 -99 0 -99 0 -32 -60 -32 -60 -74 0
c-41 0 -72 3 -70 8 2 4 75 132 162 285 l159 277 78 0 c72 0 78 -2 83 -22z
m1995 10 c0 -7 -16 -86 -35 -175 -41 -189 -42 -211 -15 -246 41 -52 133 -39
165 22 12 23 95 378 95 406 0 3 31 5 68 5 l69 0 -39 -177 c-53 -249 -64 -279
-118 -334 -51 -53 -93 -69 -185 -69 -94 1 -168 43 -194 113 -19 49 -12 129 24
298 19 90 35 165 35 166 0 2 29 3 65 3 45 0 65 -4 65 -12z m1215 -10 c6 -31
75 -517 75 -535 0 -11 -15 -13 -67 -11 -64 3 -68 4 -71 28 -1 14 -5 40 -8 58
l-5 32 -99 0 -99 0 -32 -60 -32 -60 -74 0 c-41 0 -72 3 -70 8 2 4 75 132 162
285 l159 277 78 0 c72 0 78 -2 83 -22z m1095 17 c0 -3 -11 -58 -25 -122 -14
-64 -24 -117 -23 -118 2 -2 50 53 108 120 l105 124 83 0 84 1 -132 -139 -132
-140 76 -139 c42 -76 76 -142 76 -145 0 -4 -35 -7 -78 -7 l-78 0 -64 130 -65
130 -22 -107 c-12 -60 -25 -118 -28 -130 -5 -21 -11 -23 -70 -23 -36 0 -65 4
-65 9 0 10 109 530 115 549 4 12 135 19 135 7z m-5753 -47 c-4 -13 -9 -42 -13
-65 l-7 -43 47 0 c51 0 50 1 35 -52 -10 -37 -11 -38 -58 -38 l-47 0 -18 -92
c-24 -122 -21 -134 28 -130 l38 3 -7 -43 c-4 -24 -11 -47 -16 -53 -5 -5 -37
-11 -72 -13 -51 -3 -66 0 -88 17 -38 30 -42 72 -19 185 26 129 27 126 -15 126
-19 0 -35 -5 -35 -10 0 -7 -13 -9 -33 -5 -27 5 -40 2 -64 -19 -38 -32 -55 -74
-79 -193 l-18 -93 -66 0 -67 0 33 153 c18 83 36 176 40 205 l6 52 64 0 c64 0
64 0 64 -29 l0 -29 34 34 c26 26 42 34 70 34 32 0 36 -3 37 -27 2 -24 2 -25 6
-5 4 17 11 22 38 22 32 0 33 1 40 49 l7 49 56 15 c80 21 85 21 79 -5z m2310 0
c-4 -13 -9 -42 -13 -65 l-7 -43 47 0 c51 0 50 1 35 -52 -10 -37 -11 -38 -58
-38 l-47 0 -18 -92 c-24 -122 -21 -134 28 -130 l38 3 -7 -43 c-4 -24 -11 -47
-16 -53 -5 -5 -37 -11 -72 -13 -51 -3 -66 0 -88 17 -38 30 -42 72 -19 185 26
126 26 126 -9 126 l-28 0 10 45 c10 42 13 45 43 45 31 0 32 2 39 49 l7 49 56
15 c80 21 85 21 79 -5z m-4160 -118 c12 -10 24 -29 28 -41 7 -21 7 -21 33 4
70 65 154 76 203 28 41 -42 38 -87 -26 -368 -5 -21 -11 -23 -70 -23 -63 0 -65
1 -60 23 67 293 64 330 -23 277 -42 -26 -59 -63 -85 -190 l-22 -105 -66 -3
-67 -3 31 146 c28 134 29 147 14 162 -13 14 -20 14 -47 3 -46 -19 -77 -82
-102 -204 l-21 -106 -67 0 -66 0 38 178 c20 97 38 189 38 205 0 27 1 27 65 27
l65 0 0 -32 0 -31 23 20 c59 54 145 70 184 33z m731 -5 c77 -65 61 -237 -31
-334 -47 -49 -100 -71 -178 -71 l-67 0 -18 -90 -18 -90 -67 0 -66 0 28 133
c16 72 43 207 61 300 l33 167 64 0 64 0 -6 -29 -6 -29 27 25 c35 33 58 42 109
42 30 1 49 -6 71 -24z m436 2 c54 -31 76 -76 76 -157 0 -112 -64 -210 -155
-240 -53 -18 -158 -9 -192 16 -37 26 -73 99 -73 145 0 51 24 124 55 170 58 83
202 116 289 66z m1087 0 c43 -29 61 -63 55 -106 -11 -76 -75 -118 -196 -128
-57 -5 -70 -9 -70 -23 0 -51 99 -72 168 -36 19 10 36 15 39 13 2 -3 1 -25 -4
-49 -12 -58 -42 -73 -150 -73 -67 0 -86 4 -109 21 -70 52 -90 130 -58 230 21
69 88 143 144 161 63 20 143 16 181 -10z m409 1 c0 -13 -5 -40 -11 -61 -10
-36 -12 -37 -43 -32 -26 5 -39 1 -63 -19 -38 -32 -55 -74 -79 -193 l-18 -93
-66 0 -67 0 33 153 c18 83 36 176 40 205 l6 52 64 0 c64 0 64 0 64 -29 l0 -29
34 34 c26 26 42 34 70 34 31 0 36 -3 36 -22z m5618 13 c23 -5 45 -11 48 -13 2
-3 -9 -68 -25 -144 -16 -76 -32 -165 -36 -196 l-7 -58 -64 0 c-63 0 -64 1 -64
27 l0 26 -22 -20 c-36 -32 -63 -43 -108 -43 -105 0 -150 142 -90 278 45 102
128 152 250 151 41 0 94 -4 118 -8z m479 -6 c46 -32 48 -77 13 -249 l-33 -156
-63 0 c-37 0 -64 4 -64 10 0 6 11 62 25 126 29 135 30 157 9 175 -13 11 -21
10 -48 -5 -47 -25 -71 -75 -97 -198 l-22 -108 -67 0 -66 0 38 178 c20 97 38
189 38 205 0 27 1 27 65 27 l65 0 0 -32 0 -31 23 20 c56 51 140 69 184 38z
m481 6 c23 -5 45 -11 48 -13 2 -3 -9 -68 -25 -144 -16 -76 -32 -165 -36 -196
l-7 -58 -64 0 c-63 0 -64 1 -64 27 l0 26 -22 -20 c-36 -32 -63 -43 -108 -43
-105 0 -150 142 -90 278 45 102 128 152 250 151 41 0 94 -4 118 -8z m-5608
-13 c0 -7 -12 -72 -27 -145 -27 -127 -27 -133 -10 -150 17 -17 19 -17 54 2 48
26 68 68 95 198 l22 107 66 0 67 0 -33 -152 c-17 -84 -35 -177 -39 -205 l-7
-53 -65 0 -65 0 4 34 4 34 -34 -29 c-42 -37 -72 -49 -120 -49 -49 0 -79 22
-92 68 -10 31 -7 61 19 186 17 82 31 152 31 157 0 5 29 9 65 9 44 0 65 -4 65
-12z m1204 -20 c-4 -23 -43 -72 -126 -160 l-120 -128 94 0 95 0 -10 -45 -10
-45 -184 0 -183 0 0 24 c0 16 37 62 125 154 69 71 125 133 125 136 0 3 -38 6
-85 6 l-85 0 6 28 c15 67 -2 62 190 62 l176 0 -8 -32z m2236 27 c0 -2 -14 -68
-30 -146 -33 -154 -31 -176 18 -164 24 6 25 5 18 -36 -10 -61 -20 -69 -85 -69
-78 1 -111 31 -111 105 0 29 26 169 55 293 5 20 11 22 70 22 36 0 65 -2 65 -5z
m2883 -37 c4 -24 12 -88 18 -143 l12 -99 68 142 68 142 69 0 70 0 -143 -247
c-150 -261 -198 -327 -251 -349 -39 -16 -130 -19 -139 -4 -3 6 -3 31 1 56 6
43 8 45 33 39 41 -9 77 10 107 54 l26 41 -36 192 c-21 106 -39 199 -41 206 -3
9 14 12 64 12 l69 0 5 -42z m-6669 -944 c21 -20 20 -43 -1 -66 -31 -34 -103
-14 -103 29 0 45 71 70 104 37z m2736 4 c0 -7 -16 -92 -36 -190 -20 -97 -34
-184 -30 -193 4 -11 13 -15 26 -12 23 6 25 -8 10 -48 -9 -24 -14 -26 -61 -23
-43 2 -55 8 -73 31 l-20 27 28 143 c15 78 35 172 43 210 l15 67 49 0 c32 0 49
-4 49 -12z m1180 -1 c0 -8 -12 -66 -26 -131 -14 -65 -24 -120 -21 -122 2 -3
28 22 57 56 l52 60 61 0 61 0 -74 -75 -74 -75 42 -85 42 -85 -58 0 -59 0 -27
70 c-15 39 -31 70 -35 70 -4 0 -14 -31 -21 -70 l-13 -70 -53 0 -52 0 34 163
c19 89 41 195 50 235 l16 72 49 0 c34 0 49 -4 49 -13z m-5021 -84 c11 -38 24
-84 29 -103 l8 -35 14 25 c7 14 38 60 69 103 l56 77 68 0 c60 0 68 -2 63 -17
-2 -10 -24 -109 -47 -220 l-43 -203 -49 0 c-41 0 -48 3 -43 18 2 9 17 73 31
142 14 69 29 134 32 145 3 11 -8 2 -23 -21 -114 -161 -106 -153 -147 -154 -42
0 -45 4 -75 120 l-18 67 -33 -156 c-18 -86 -34 -157 -36 -159 -1 -2 -23 -2
-47 0 l-44 3 45 218 46 217 62 0 62 0 20 -67z m2471 60 c0 -5 -9 -46 -19 -93
-11 -47 -18 -86 -17 -87 1 -1 39 41 84 93 l84 94 59 0 c32 0 59 -3 59 -6 0 -4
-44 -52 -97 -106 l-98 -100 58 -108 c31 -60 57 -111 57 -114 0 -3 -27 -6 -60
-6 l-60 0 -49 98 -49 97 -10 -40 c-6 -22 -16 -66 -22 -97 l-11 -58 -54 0 c-46
0 -53 2 -49 18 2 9 22 103 44 207 22 105 42 196 45 203 5 13 105 18 105 5z
m-1814 -116 c7 -4 4 -40 -12 -114 -12 -59 -25 -129 -29 -155 l-6 -48 -50 0
c-44 0 -49 2 -49 23 -1 19 -2 20 -13 6 -34 -44 -102 -51 -143 -16 -23 20 -28
34 -32 84 -7 102 32 177 113 215 32 15 57 18 125 15 47 -1 90 -6 96 -10z m290
-4 c-2 -10 -7 -33 -11 -50 -6 -28 -10 -32 -30 -27 -54 13 -92 -42 -115 -168
l-12 -68 -53 0 -52 0 28 138 c16 75 29 147 29 160 0 20 5 22 54 22 53 0 53 0
48 -27 l-5 -28 27 33 c22 25 36 32 63 32 28 0 33 -3 29 -17z m802 11 c20 -6
22 -11 16 -43 -4 -20 -8 -38 -10 -39 -1 -2 -19 1 -38 8 -42 14 -76 5 -76 -18
0 -9 22 -30 47 -47 115 -73 60 -195 -89 -195 -29 0 -64 3 -76 7 -21 5 -23 10
-17 42 4 20 8 37 9 39 2 1 26 -3 55 -10 46 -10 54 -10 69 6 16 16 15 19 -11
39 -69 53 -87 75 -87 107 0 42 15 67 53 90 32 20 107 26 155 14z m1202 -9 c78
-40 87 -182 17 -262 -39 -44 -82 -63 -144 -63 -53 0 -98 24 -119 62 -31 55 -7
186 42 230 55 48 146 63 204 33z m356 -2 c-2 -10 -7 -33 -11 -50 -6 -28 -10
-32 -30 -27 -54 13 -92 -42 -115 -168 l-12 -68 -53 0 -52 0 28 138 c16 75 29
147 29 160 0 20 5 22 54 22 53 0 53 0 48 -27 l-5 -28 27 33 c22 25 36 32 63
32 28 0 33 -3 29 -17z m254 2 c78 -40 87 -182 17 -262 -39 -44 -82 -63 -144
-63 -53 0 -98 24 -119 62 -31 55 -7 186 42 230 55 48 146 63 204 33z m562 3
c12 -10 13 -20 6 -46 -8 -29 -12 -32 -31 -25 -65 22 -119 -11 -133 -82 -14
-77 23 -118 87 -96 18 6 34 10 36 8 2 -2 0 -18 -3 -36 -8 -41 -40 -54 -112
-49 -41 4 -59 11 -80 32 -25 24 -27 33 -27 104 0 68 3 82 28 119 17 24 47 51
70 62 47 24 134 28 159 9z m-7300 -276 l3 -278 33 -66 c41 -85 110 -153 187
-189 33 -15 210 -69 393 -120 l333 -92 -1 -199 c-1 -109 -4 -200 -8 -202 -4
-2 -81 16 -172 41 -586 157 -650 176 -725 212 -197 94 -342 263 -416 486 -22
66 -23 89 -27 378 l-4 307 201 0 200 0 3 -278z m4268 271 c0 -5 -10 -56 -21
-115 -23 -115 -21 -143 11 -135 23 6 25 -8 10 -47 -8 -23 -15 -26 -59 -26 -42
0 -53 4 -70 26 -26 33 -26 42 -1 167 30 147 24 137 81 137 27 0 49 -3 49 -7z
m190 -30 c-44 -196 -41 -237 11 -213 37 17 57 58 77 157 l18 88 53 3 c51 3 53
2 48 -20 -9 -38 -45 -220 -52 -260 -6 -38 -6 -38 -55 -38 -44 0 -50 3 -50 20
0 20 -1 20 -37 -5 -73 -49 -153 -21 -153 54 0 20 10 84 22 144 l22 107 52 0
52 0 -8 -37z m825 15 c-8 -26 -21 -41 -120 -148 l-70 -75 71 -3 71 -3 -6 -32
-7 -32 -148 -3 -148 -3 8 23 c4 13 50 68 103 123 l95 100 -68 3 c-65 3 -68 4
-62 25 3 12 6 28 6 35 0 9 35 12 141 12 l140 0 -6 -22z m2350 0 c-8 -26 -21
-41 -120 -148 l-70 -75 71 -3 71 -3 -6 -32 -7 -32 -148 -3 -148 -3 8 23 c4 13
50 68 103 123 l95 100 -68 3 c-65 3 -68 4 -62 25 3 12 6 28 6 35 0 9 35 12
141 12 l140 0 -6 -22z m145 -15 c-44 -196 -41 -237 11 -213 37 17 57 58 77
157 l18 88 53 3 c51 3 53 2 48 -20 -9 -38 -45 -220 -52 -260 -6 -38 -6 -38
-55 -38 -44 0 -50 3 -50 20 0 20 -1 20 -37 -5 -73 -49 -153 -21 -153 54 0 20
10 84 22 144 l22 107 52 0 52 0 -8 -37z m4038 -270 c-4 -289 -5 -312 -27 -378
-73 -220 -220 -392 -417 -487 -103 -49 -923 -273 -939 -256 -7 8 -5 9 7 5 14
-5 15 -1 8 24 -5 17 -5 31 1 34 5 4 9 81 9 173 l0 167 343 95 c188 52 367 107
397 121 73 35 142 104 182 187 l33 66 3 278 3 278 200 0 201 0 -4 -307z
m-7689 -699 c11 -38 24 -87 30 -109 l11 -41 93 4 c143 6 144 5 39 -62 -50 -32
-92 -61 -92 -64 0 -4 16 -49 36 -101 19 -51 33 -95 31 -98 -2 -2 -41 26 -86
62 -50 41 -86 63 -94 59 -6 -4 -44 -34 -84 -66 -39 -32 -74 -58 -77 -58 -3 0
10 43 29 95 19 53 35 100 35 104 0 5 -43 37 -95 71 -52 34 -95 63 -95 64 0 0
51 -2 112 -5 62 -3 116 -3 119 0 4 3 19 54 34 114 16 59 30 106 32 104 2 -2
12 -35 22 -73z m3256 -141 c10 -54 20 -103 22 -110 3 -9 41 -13 121 -15 l117
-3 -85 -47 c-134 -74 -125 -57 -91 -173 17 -54 29 -100 27 -102 -2 -2 -38 28
-82 67 -43 39 -83 69 -89 66 -6 -2 -50 -31 -98 -64 l-86 -61 35 77 c42 90 54
120 54 132 0 4 -41 38 -90 75 -50 37 -89 69 -88 70 2 1 52 -4 113 -11 60 -8
112 -10 116 -6 3 4 21 51 40 104 19 54 37 98 40 98 3 0 14 -44 24 -97z m-1630
-139 l38 -147 154 7 c84 4 153 5 153 3 0 -3 -56 -41 -125 -86 -69 -44 -125
-85 -125 -90 0 -5 23 -69 50 -141 28 -73 49 -134 48 -136 -2 -1 -56 40 -120
92 l-118 95 -117 -95 c-65 -52 -119 -93 -121 -92 -1 2 20 63 48 136 27 72 50
136 50 141 0 5 -56 46 -125 90 -69 45 -125 83 -125 86 0 2 69 1 153 -3 l154
-7 38 147 c21 80 41 146 45 146 4 0 24 -66 45 -146z m-4041 55 c725 -195 1566
-424 2636 -717 1249 -341 1266 -346 1360 -346 94 0 111 4 1340 341 1128 309
2471 673 2482 673 3 0 3 -15 2 -32 -6 -60 -3 -361 3 -371 4 -6 0 -8 -9 -4 -9
3 -19 2 -24 -3 -5 -5 -151 -47 -324 -95 -173 -48 -470 -129 -660 -182 -1445
-397 -2627 -717 -2692 -727 -90 -15 -205 -12 -291 8 -75 18 -2424 660 -3594
983 -342 94 -393 110 -395 128 -2 11 -2 89 0 173 3 143 4 153 20 140 15 -12
16 -11 4 4 -8 9 -10 23 -6 29 4 7 3 9 -4 5 -7 -4 -10 1 -9 14 1 11 3 20 5 20
2 0 72 -18 156 -41z"/>
<path d="M11734 4035 c-38 -19 -72 -78 -80 -138 -5 -37 -3 -48 15 -66 11 -11
27 -21 35 -21 45 0 103 102 108 192 3 39 1 43 -22 46 -14 1 -39 -5 -56 -13z"/>
<path d="M5346 4088 c-21 -40 -48 -88 -58 -105 l-20 -33 72 0 72 0 -7 68 c-4
37 -10 84 -14 105 l-6 38 -39 -73z"/>
<path d="M8556 4088 c-21 -40 -48 -88 -58 -105 l-20 -33 72 0 72 0 -7 68 c-4
37 -10 84 -14 105 l-6 38 -39 -73z"/>
<path d="M3811 4064 c0 -11 3 -14 6 -6 3 7 2 16 -1 19 -3 4 -6 -2 -5 -13z"/>
<path d="M2752 4015 c-34 -28 -46 -55 -66 -142 -12 -54 -12 -62 1 -67 67 -26
145 46 159 147 5 37 3 48 -15 66 -27 27 -43 27 -79 -4z"/>
<path d="M3223 4030 c-49 -20 -86 -125 -63 -180 15 -36 42 -46 80 -30 60 25
93 157 50 200 -22 22 -33 23 -67 10z"/>
<path d="M4314 4040 c-23 -9 -64 -56 -64 -73 0 -11 68 -2 105 15 28 13 34 52
9 62 -19 7 -23 7 -50 -4z"/>
<path d="M10292 4033 c-39 -19 -70 -73 -78 -137 -5 -36 -3 -47 15 -65 28 -28
47 -27 81 7 27 28 54 98 67 175 5 36 4 37 -23 37 -16 0 -44 -8 -62 -17z"/>
<path d="M11252 4033 c-39 -19 -70 -73 -78 -137 -5 -36 -3 -47 15 -65 28 -28
47 -27 81 7 27 28 54 98 67 175 5 36 4 37 -23 37 -16 0 -44 -8 -62 -17z"/>
<path d="M4859 2935 c-48 -26 -78 -147 -44 -175 19 -15 49 -5 69 24 14 22 46
129 46 155 0 15 -40 13 -71 -4z"/>
<path d="M7217 2938 c-41 -32 -61 -142 -31 -172 44 -44 104 21 104 113 0 59
-35 87 -73 59z"/>
<path d="M7827 2938 c-41 -32 -61 -142 -31 -172 44 -44 104 21 104 113 0 59
-35 87 -73 59z"/>
</g>
</svg>
